<?xml version="1.0" encoding="UTF-8" standalone="no"?>
<!-- Created with Inkscape (http://www.inkscape.org/) -->

<svg
   xmlns:dc="http://purl.org/dc/elements/1.1/"
   xmlns:cc="http://creativecommons.org/ns#"
   xmlns:rdf="http://www.w3.org/1999/02/22-rdf-syntax-ns#"
   xmlns:svg="http://www.w3.org/2000/svg"
   xmlns="http://www.w3.org/2000/svg"
   xmlns:sodipodi="http://sodipodi.sourceforge.net/DTD/sodipodi-0.dtd"
   xmlns:inkscape="http://www.inkscape.org/namespaces/inkscape"
   width="80"
   height="80"
   viewBox="0 0 80 80"
   id="svg6486"
   version="1.1"
   inkscape:version="0.91 r13725"
   sodipodi:docname="placeholder.svg">
  <defs
     id="defs6488" />
  <sodipodi:namedview
     id="base"
     pagecolor="#ffffff"
     bordercolor="#666666"
     borderopacity="1.0"
     inkscape:pageopacity="0.0"
     inkscape:pageshadow="2"
     inkscape:zoom="0.35"
     inkscape:cx="-1146.4286"
     inkscape:cy="511.42858"
     inkscape:document-units="px"
     inkscape:current-layer="layer1"
     showgrid="false"
     fit-margin-top="0"
     fit-margin-left="0"
     fit-margin-right="0"
     fit-margin-bottom="0"
     units="px"
     inkscape:window-width="1366"
     inkscape:window-height="705"
     inkscape:window-x="-8"
     inkscape:window-y="-8"
     inkscape:window-maximized="1" />
  <metadata
     id="metadata6491">
    <rdf:RDF>
      <cc:Work
         rdf:about="">
        <dc:format>image/svg+xml</dc:format>
        <dc:type
           rdf:resource="http://purl.org/dc/dcmitype/StillImage" />
        <dc:title></dc:title>
      </cc:Work>
    </rdf:RDF>
  </metadata>
  <g
     inkscape:label="Layer 1"
     inkscape:groupmode="layer"
     id="layer1"
     transform="translate(-1034.2857,-963.79078)">
    <g
       id="surface72380"
       transform="matrix(1.25,0,0,1.25,1034.2857,963.79078)">
      <path
         id="path7037"
         d="M 64,32 C 64,49.671875 49.671875,64 32,64 14.328125,64 0,49.671875 0,32 0,14.328125 14.328125,0 32,0 49.671875,0 64,14.328125 64,32"
         style="fill:#75dcf8;fill-opacity:1;fill-rule:nonzero;stroke:none"
         inkscape:connector-curvature="0" />
      <path
         id="path7039"
         d="m 6.09375,36.453125 46.257813,0 3.808593,-12.824219 -48.507812,0 -3.167969,10.664063 c -0.320312,1.078125 0.484375,2.160156 1.609375,2.160156"
         style="fill:#f59e00;fill-opacity:1;fill-rule:nonzero;stroke:none"
         inkscape:connector-curvature="0" />
      <path
         id="path7041"
         d="m 8.535156,36.453125 43.816407,0 3.808593,-12.824219 -48.507812,0 z m 0,0"
         style="fill:#ca8c00;fill-opacity:1;fill-rule:nonzero;stroke:none"
         inkscape:connector-curvature="0" />
      <path
         id="path7043"
         d="m 57.90625,40.648438 -45.066406,0 c -0.785156,0 -1.464844,-0.542969 -1.636719,-1.3125 L 7.6875,23.632813 l 48.507813,0 3.351562,14.96875 c 0.234375,1.050781 -0.5625,2.046875 -1.640625,2.046875"
         style="fill:#ffd151;fill-opacity:1;fill-rule:nonzero;stroke:none"
         inkscape:connector-curvature="0" />
      <path
         id="path7045"
         d="M 13.628906,38.242188 11.019531,26.8125 l 43.039063,0 2.613281,11.429688 z M 57.5,38.4375 54.734375,26.347656 c -0.03906,-0.171875 -0.191406,-0.296875 -0.371094,-0.296875 l -43.820312,0 c -0.117188,0 -0.226563,0.05469 -0.300781,0.144532 -0.07031,0.08984 -0.09766,0.210937 -0.07422,0.320312 l 2.789062,12.191406 c 0.03906,0.175782 0.191407,0.296875 0.371094,0.296875 l 43.820313,0 c 0.0078,0 0.01172,0 0.01563,0 0.210937,0 0.382812,-0.167968 0.382812,-0.378906 0,-0.07031 -0.01563,-0.132812 -0.04687,-0.1875"
         style="fill:#f5a100;fill-opacity:1;fill-rule:nonzero;stroke:none"
         inkscape:connector-curvature="0" />
      <path
         id="path7047"
         d="m 15.226563,31.875 1.644531,0 c 0.519531,0 1.039062,-0.164062 0.867187,-1.136719 -0.179687,-1.015625 -0.785156,-1.09375 -1.136718,-1.09375 l -1.769532,0 z m 0.628906,3.574219 -0.707031,0 -1.160157,-6.566406 2.429688,0 c 0.863281,0 1.789062,0.375 2.035156,1.765625 C 18.625,31.617188 18.292969,31.972656 18,32.222656 c 0.328125,0.152344 0.65625,0.320313 0.847656,1.234375 l 0.253907,1.1875 c 0.07031,0.367188 0.132812,0.503907 0.378906,0.65625 l 0.02344,0.148438 -0.867187,0 C 18.460938,35.046875 18.265625,34.050781 18.222656,33.804688 18.125,33.265625 17.925781,32.632813 17.078125,32.632813 l -1.71875,0 z m 0,0"
         style="fill:#ffffff;fill-opacity:1;fill-rule:nonzero;stroke:none"
         inkscape:connector-curvature="0" />
      <path
         id="path7049"
         d="m 24.289063,35.449219 -3.878907,0 -1.15625,-6.566406 3.824219,0 0.140625,0.789062 -3.117187,0 0.355468,2.011719 2.875,0 0.136719,0.785156 -2.871094,0 0.386719,2.195313 3.164063,0 z m 0,0"
         style="fill:#ffffff;fill-opacity:1;fill-rule:nonzero;stroke:none"
         inkscape:connector-curvature="0" />
      <path
         id="path7051"
         d="m 27.566406,30.804688 c -0.214843,-1.015625 -0.945312,-1.335938 -1.539062,-1.335938 -0.445313,0 -1.171875,0.15625 -0.996094,1.152344 0.101563,0.558594 0.445313,0.742187 0.769531,0.832031 L 27.375,31.882813 c 0.714844,0.203125 1.320313,0.714843 1.503906,1.757812 0.273438,1.550781 -0.808593,1.980469 -1.707031,1.980469 -0.972656,0 -1.417969,-0.363281 -1.699219,-0.628906 -0.53125,-0.503907 -0.71875,-1.050782 -0.824218,-1.664063 l 0.664062,0 c 0.210938,1.1875 1.046875,1.535156 1.71875,1.535156 0.511719,0 1.34375,-0.164062 1.179688,-1.105468 -0.121094,-0.6875 -0.414063,-0.90625 -1.324219,-1.160157 l -1.128906,-0.3125 c -0.363282,-0.101562 -1.191407,-0.402343 -1.390625,-1.546875 -0.183594,-1.023437 0.175781,-2.027343 1.449218,-2.027343 1.832032,0 2.257813,1.371093 2.414063,2.09375 z m 0,0"
         style="fill:#ffffff;fill-opacity:1;fill-rule:nonzero;stroke:none"
         inkscape:connector-curvature="0" />
      <path
         id="path7053"
         d="m 34.046875,35.449219 -3.878906,0 -1.15625,-6.566406 3.824219,0 0.140625,0.789062 -3.117188,0 0.355469,2.011719 2.875,0 0.136719,0.785156 -2.871094,0 0.386719,2.195313 3.164062,0 z m 0,0"
         style="fill:#ffffff;fill-opacity:1;fill-rule:nonzero;stroke:none"
         inkscape:connector-curvature="0" />
      <path
         id="path7055"
         d="m 35.140625,31.875 1.644531,0 c 0.519532,0 1.039063,-0.164062 0.871094,-1.136719 -0.179687,-1.015625 -0.785156,-1.09375 -1.136719,-1.09375 l -1.773437,0 z m 0.632813,3.574219 -0.710938,0 -1.15625,-6.566406 2.425781,0 c 0.863282,0 1.792969,0.375 2.039063,1.765625 0.167969,0.96875 -0.164063,1.324218 -0.457031,1.574218 0.328125,0.152344 0.65625,0.320313 0.847656,1.234375 l 0.253906,1.1875 c 0.07031,0.367188 0.132813,0.503907 0.378906,0.65625 l 0.02734,0.148438 -0.871094,0 c -0.171875,-0.402344 -0.371093,-1.398438 -0.414062,-1.644531 -0.09375,-0.539063 -0.296875,-1.171875 -1.144531,-1.171875 l -1.71875,0 z m 0,0"
         style="fill:#ffffff;fill-opacity:1;fill-rule:nonzero;stroke:none"
         inkscape:connector-curvature="0" />
      <path
         id="path7057"
         d="m 42.109375,28.882813 0.800781,0 -0.761718,6.566406 -0.75,0 -3.074219,-6.566406 0.789062,0 2.484375,5.597656 0.01563,0 z m 0,0"
         style="fill:#ffffff;fill-opacity:1;fill-rule:nonzero;stroke:none"
         inkscape:connector-curvature="0" />
      <path
         id="path7059"
         d="m 48.71875,35.449219 -3.878906,0 -1.15625,-6.566406 3.824219,0 0.140625,0.789062 -3.117188,0 0.355469,2.011719 2.875,0 0.136719,0.785156 -2.871094,0 0.386719,2.195313 3.164062,0 z m 0,0"
         style="fill:#ffffff;fill-opacity:1;fill-rule:nonzero;stroke:none"
         inkscape:connector-curvature="0" />
      <path
         id="path7061"
         d="m 50.257813,34.691406 1.375,0 c 0.921875,0 1.363281,-0.90625 1.070312,-2.5625 -0.289062,-1.652343 -1.042969,-2.484375 -2.011719,-2.484375 l -1.320312,0 z m -1.730469,-5.808593 2.128906,0 c 1.363281,0 2.433594,1.300781 2.769531,3.191406 0.257813,1.472656 0.08203,3.375 -1.640625,3.375 l -2.101562,0 z m 0,0"
         style="fill:#ffffff;fill-opacity:1;fill-rule:nonzero;stroke:none"
         inkscape:connector-curvature="0" />
    </g>
  </g>
</svg>
